# xmcd
#
# Track frame offsets:
#  150
#  14950
#  25555
#  36085
#  50870
#  64557
#  76680
#  86502
#  98955
#  111815
#  128127
#  146080
#  159902
#  169917
#  180877
#  190945
#  203305
#  216650
#  230585
#  242862
#
# Disc length: 3371 seconds
#
# Revision: 0
# Processed by: cddbd v1.4PL0 Copyright (c) Steve Scherf et al.
# Submitted via: AltoMP3_Maker 3.0
#
DISCID=0e0d2914
DTITLE=4 Country Living Legends - 20 Hits
DYEAR=1900
DGENRE=
TTITLE0=He Stopped Loving Her Today
TTITLE1=Nothing Ever Hurt Me (Half As Bad As Losing You)
TTITLE2=Her Name Is . . .
TTITLE3=Who's Gonna Fill Their Shoes
TTITLE4=Golden Ring (With Tammy Wynette)
TTITLE5=Okie From Muskogee
TTITLE6=Mama Tried
TTITLE7=If We Make It Through December
TTITLE8=The Fightin' Side Of Me
TTITLE9=Hungry Eyes
TTITLE10=Crazy
TTITLE11=Funny How Time
TTITLE12=Hello Walls
TTITLE13=Night Life
TTITLE14=Mr. Record Man
TTITLE15=Take This Job And Shove It
TTITLE16=Slide Off Of Your Satin Sheets
TTITLE17=I'm The Only Hell Mama Ever Raised
TTITLE18=She's All I Got
TTITLE19=Loving You Beats All I've Ever Seen
EXTD=
EXTT0=
EXTT1=
EXTT2=
EXTT3=
EXTT4=
EXTT5=
EXTT6=
EXTT7=
EXTT8=
EXTT9=
EXTT10=
EXTT11=
EXTT12=
EXTT13=
EXTT14=
EXTT15=
EXTT16=
EXTT17=
EXTT18=
EXTT19=
PLAYORDER=
